<?xml version="1.0" standalone="no"?><!DOCTYPE svg PUBLIC "-//W3C//DTD SVG 1.1//EN" "http://www.w3.org/Graphics/SVG/1.1/DTD/svg11.dtd"><svg t="1576055501357" class="icon" viewBox="0 0 1024 1024" version="1.1" xmlns="http://www.w3.org/2000/svg" p-id="1875" xmlns:xlink="http://www.w3.org/1999/xlink" width="600" height="600"><defs><style type="text/css"></style></defs><path d="M390.412312 824.444722H67.030426c-16.373766 0-29.677452-13.303685-29.677452-30.189132 0-16.373766 13.303685-30.189132 29.677452-30.189132h323.381886c16.373766 0 30.189132 13.303685 30.189132 30.189132-0.51168 16.885447-13.815365 30.189132-30.189132 30.189132z m368.409744-603.782636l-211.835603-211.835603c-11.768645-11.768645-30.700812-11.768645-42.469456 0l-60.889944 60.889944c-4.605122 4.605122-7.675203 10.745284-8.698563 16.885447l-7.675203 52.19138-209.277202 209.277202-51.6797 7.675203c-6.140162 1.02336-12.280325 4.093442-16.885447 8.698563l-60.378263 60.889944c-11.768645 11.768645-11.768645 30.700812 0 42.469457l211.323922 211.835602c5.628482 5.628482 13.815365 8.698563 20.978888 8.698564 7.675203 0 15.350406-3.070081 20.978889-8.698564l60.889943-60.889943c4.605122-4.605122 7.675203-10.745284 8.698564-16.885447l7.163522-50.65634 210.812243-210.812242 50.65634-7.163523c6.140162-1.02336 12.280325-4.093442 16.885446-8.698563l60.889944-60.889944c12.280325-12.280325 12.280325-31.212492 0.51168-42.981137z m-404.227358 362.269582l-32.747532 32.747532-169.366147-169.366146 32.235853-32.747532 40.422736-5.628483 134.571892 134.571893-5.116802 40.422736z m39.911056-92.102436l-116.663086-116.663086 176.529669-176.529669 116.663086 116.663086-176.529669 176.529669z m268.120425-215.929045l-40.422736 5.628483-134.571893-134.571893 5.628482-40.422736 32.747533-32.747533 169.366146 169.366147-32.747532 32.747532z m323.893566 458.97714l-360.222861-317.241724-42.469456 42.469456 362.781262 319.800125c10.745284 9.721924 16.885447 22.513929 17.397126 36.329294 0.51168 13.815365-5.116802 27.119051-15.350406 37.352655l-10.233604 10.233604c-20.467208 20.467208-54.238101 19.443848-73.681948-2.558401l-319.800125-362.781262-42.469457 42.469457 317.241724 359.71118c20.978888 24.048969 51.16802 37.864335 82.892192 37.864335 29.165771 0 57.308182-11.768645 78.287071-32.747533l10.233604-10.233604c22.002249-22.002249 33.770893-51.16802 32.747533-81.868832-0.51168-30.189132-14.327046-58.331543-37.352655-78.79875z m-926.652842 200.066958h337.197252v62.424984h59.866583v-92.102436c0-16.373766-13.303685-30.189132-30.189132-30.189132h-397.063835c-16.373766 0-29.677452 13.303685-29.677451 30.189132v92.102436h59.866583v-62.424984z" fill="#6caf08" p-id="1876"></path></svg>