<?xml version="1.0" standalone="no"?><!DOCTYPE svg PUBLIC "-//W3C//DTD SVG 1.1//EN" "http://www.w3.org/Graphics/SVG/1.1/DTD/svg11.dtd"><svg t="1573029096662" class="icon" viewBox="0 0 1024 1024" version="1.1" xmlns="http://www.w3.org/2000/svg" p-id="1394" xmlns:xlink="http://www.w3.org/1999/xlink" width="200" height="200"><defs><style type="text/css"></style></defs><path d="M884.76891969 798.89816656L846.31901469 432.54719563c-6.72525281-63.55961719-66.92552625-113.36142281-137.21039625-113.36142282h-31.09822219v-73.43540344C678.01039625 154.65674375 603.93937063 80.59097094 512.95868656 80.59097094c-91.09231219 0-165.05565 74.06577281-165.05565 165.05171062v73.44065625h-31.09822125c-70.28487 0-130.48514344 49.79655281-137.21039625 113.46385782L141.14451406 798.79047875C136.94336563 839.03036938 149.44569125 878.746265 175.5009575 907.74062937c26.05395375 28.89192844 62.40525281 44.86128563 102.53745562 44.86128563h469.72891969c40.13745563 0 76.48875469-15.96935719 102.54270844-44.86128563 26.15770219-28.99436344 38.76771563-68.60257219 34.45887844-108.84246281zM391.92777031 245.64268156c0-66.81783844 54.31682625-121.13466469 121.13466469-121.13466469 66.71409 0 121.03091625 54.31682625 121.03091625 121.13466469v73.44065625H391.92777031V245.64268156z m425.81318719 632.68202438c-17.54528063 19.54013719-42.33849563 30.25641563-69.86593688 30.25641562H278.03841313c-27.52744219 0-52.32065625-10.71627937-69.86593688-30.25641562C190.10057469 858.35906937 181.80465125 831.78112156 184.84749687 803.41187375l38.45384344-366.34571812c4.30883719-40.87026 46.22577281-74.07102563 93.40104-74.07102563H709.10861844c47.27770219 0 89.19463781 33.20076563 93.503475 74.07102563l38.45384343 366.34571812c2.94041063 28.36924781-5.36076562 54.94719563-23.32497937 74.91283219zM622.43283219 711.27288688c-76.90900125 51.79797562-142.36104 61.25220281-179.65658063 25.85039625a91.58216156 91.58216156 0 0 1-10.92640218-12.82013719c59.25603281-13.65537656 222.10144969-60.93307781 213.27233906-166.52388469-3.78090281-44.65116281-34.457565-80.05822125-78.37461-90.24525281-48.22194281-11.558085-118.61581406 7.98205219-171.24902813 95.60601937-40.66013719 67.76207906-33.20076563 158.11633406 17.02128563 205.91671594 13.86681281 13.24038281 42.44487 33.20207906 87.93258562 33.20208 37.19179219 0 85.62911062-13.23644344 146.56350188-54.31682625 10.08459656-6.82768781 12.711135-20.48831719 5.98588219-30.57422719-6.82768781-10.188345-20.48306437-12.81488344-30.56897344-6.09488343z m-189.32093063-125.44218938c34.457565-57.25592344 75.53794781-77.32399406 107.47797563-77.32399406 5.67332437 0 11.02883719 0.63036938 16.07179218 1.78473281 25.32114938 5.88476063 42.342435 25.53258562 44.54872688 51.058605 5.46320156 65.56104-126.39168281 108.42746906-185.96158594 121.45247625-5.67332437-31.308345 0-67.34183344 17.86309125-96.97182z m0 0" fill="#e6e6e6" p-id="1395"></path></svg>