<?xml version="1.0" standalone="no"?><!DOCTYPE svg PUBLIC "-//W3C//DTD SVG 1.1//EN" "http://www.w3.org/Graphics/SVG/1.1/DTD/svg11.dtd"><svg t="1573717664418" class="icon" viewBox="0 0 1024 1024" version="1.1" xmlns="http://www.w3.org/2000/svg" p-id="4304" xmlns:xlink="http://www.w3.org/1999/xlink" width="200" height="200"><defs><style type="text/css"></style></defs><path d="M896 645.12l-138.24-163.84H844.8c-12.8-194.56-174.08-348.16-368.64-348.16-202.24 0-368.64 168.96-368.64 376.32s166.4 376.32 368.64 376.32c74.24 0 145.92-23.04 207.36-66.56 23.04-17.92 58.88-10.24 74.24 12.8 17.92 23.04 10.24 58.88-12.8 74.24-79.36 56.32-171.52 84.48-268.8 84.48C215.04 990.72 0 773.12 0 509.44S215.04 25.6 476.16 25.6c248.32 0 455.68 212.48 478.72 455.68H1024l-128 163.84z m-204.8-268.8l7.68 51.2-166.4 23.04c2.56 25.6 5.12 48.64 10.24 69.12 10.24 53.76 28.16 94.72 46.08 122.88 17.92 28.16 35.84 40.96 51.2 40.96 10.24 0 20.48-30.72 25.6-92.16l48.64 28.16c-7.68 43.52-17.92 74.24-28.16 94.72-10.24 17.92-25.6 25.6-40.96 25.6-25.6 0-53.76-17.92-81.92-51.2-30.72-35.84-53.76-84.48-69.12-143.36-5.12-23.04-10.24-53.76-15.36-89.6l-107.52 15.36-7.68-51.2 110.08-15.36c-2.56-43.52-5.12-92.16-5.12-148.48h56.32c0 53.76 2.56 99.84 5.12 140.8l161.28-20.48z m-396.8 94.72c-15.36 17.92-30.72 33.28-46.08 51.2L230.4 465.92c53.76-58.88 92.16-128 117.76-207.36l51.2 23.04c-12.8 38.4-28.16 74.24-48.64 110.08V742.4h-56.32V471.04z m284.16-212.48c30.72 25.6 56.32 51.2 79.36 76.8l-35.84 35.84c-17.92-25.6-43.52-51.2-76.8-79.36l33.28-33.28z" fill="#e6e6e6" p-id="4305"></path></svg>