<?xml version="1.0" standalone="no"?><!DOCTYPE svg PUBLIC "-//W3C//DTD SVG 1.1//EN" "http://www.w3.org/Graphics/SVG/1.1/DTD/svg11.dtd"><svg t="1576153697129" class="icon" viewBox="0 0 1024 1024" version="1.1" xmlns="http://www.w3.org/2000/svg" p-id="2998" xmlns:xlink="http://www.w3.org/1999/xlink" width="600" height="600"><defs><style type="text/css"></style></defs><path d="M1023.18592 530.55488l-0.08704 1.25952c-0.02048 0.21504-0.04608 0.42496-0.05632 0.62464-0.01536 0.31744-0.0768 0.62464-0.12288 0.92672a14.06464 14.06464 0 0 1-0.13824 1.0752c0 0.04096-0.01536 0.08192-0.01536 0.128a38.912 38.912 0 0 1-10.51136 21.16608c-10.5472 12.79488-22.07744 24.80128-33.66912 36.58752-62.65856 63.62624-134.57408 120.36096-213.29408 161.54112-50.33984 26.30656-104.07424 47.51872-159.83104 57.73312-61.312 11.20768-122.68032 10.64448-183.68-2.62144-105.51808-22.95296-201.1136-79.94368-284.70272-148.09088-38.81472-31.63136-76.98432-66.24256-109.06112-105.15456-14.04416-17.02912-14.04416-37.20192 0-54.21568 10.54208-12.78464 22.07744-24.81152 33.66912-36.57728 62.65856-63.63648 134.56896-120.38656 213.30432-161.55648 50.31424-26.2912 104.05376-47.52384 159.8208-57.728 61.30688-11.20768 122.6752-10.6496 183.66464 2.60096 105.5232 22.94784 201.1136 79.95904 284.70272 148.10624 38.8096 31.63136 76.97408 66.2528 109.06624 105.16992a38.91712 38.91712 0 0 1 10.5216 21.29408c0.06144 0.33792 0.09728 0.70656 0.13824 1.06496 0.03584 0.30208 0.09216 0.60416 0.12288 0.9216 0.01536 0.19968 0.03072 0.41472 0.05632 0.62976 0.0256 0.4352 0.07168 0.83456 0.08192 1.27488 0.03072 0.64 0.0768 1.26464 0.0768 1.90976-0.00512 0.65536-0.03072 1.29536-0.05632 1.93024z m-502.82496-198.36416c-104.15616 0-188.57472 84.43392-188.57472 188.57472 0 104.15616 84.41856 188.57472 188.57472 188.57472 104.13568 0 188.57472-84.41856 188.57472-188.57472-0.00512-104.1408-84.43904-188.57472-188.57472-188.57472z m0 282.86464c-52.08064 0-94.28992-42.2144-94.28992-94.28992 0-52.0704 42.20928-94.2848 94.28992-94.2848 52.0704 0 94.2848 42.2144 94.2848 94.2848 0 52.07552-42.2144 94.28992-94.2848 94.28992z" p-id="2999" fill="#6caf08"></path></svg>