<?xml version="1.0" standalone="no"?><!DOCTYPE svg PUBLIC "-//W3C//DTD SVG 1.1//EN" "http://www.w3.org/Graphics/SVG/1.1/DTD/svg11.dtd"><svg t="1576055672891" class="icon" viewBox="0 0 1024 1024" version="1.1" xmlns="http://www.w3.org/2000/svg" p-id="4061" xmlns:xlink="http://www.w3.org/1999/xlink" width="600" height="600"><defs><style type="text/css"></style></defs><path d="M512 0a512 512 0 1 0 512 512A513.493333 513.493333 0 0 0 512 0z m284.586667 348.8A65.450667 65.450667 0 0 1 729.6 416h-3.413333l-41.386667 105.6a75.306667 75.306667 0 0 1 22.186667 51.2A65.450667 65.450667 0 0 1 640 640a67.626667 67.626667 0 0 1-67.413333-67.2v-12.8l-115.2-70.4a62.933333 62.933333 0 0 1-44.8 16l-44.8 105.6a75.733333 75.733333 0 0 1 22.613333 51.2A65.792 65.792 0 0 1 322.986667 729.6a67.2 67.2 0 0 1 0-134.4h3.413333l41.386667-105.6a75.306667 75.306667 0 0 1-22.186667-51.2A65.450667 65.450667 0 0 1 412.586667 371.2a67.626667 67.626667 0 0 1 67.413333 67.2v12.8l115.2 70.4A75.946667 75.946667 0 0 1 640 505.6h2.986667l44.8-105.6a75.306667 75.306667 0 0 1-22.186667-51.2A65.450667 65.450667 0 0 1 732.586667 281.6a62.805333 62.805333 0 0 1 64 67.2z" p-id="4062"></path></svg>