<?xml version="1.0" standalone="no"?><!DOCTYPE svg PUBLIC "-//W3C//DTD SVG 1.1//EN" "http://www.w3.org/Graphics/SVG/1.1/DTD/svg11.dtd"><svg t="1576153708337" class="icon" viewBox="0 0 1251 1024" version="1.1" xmlns="http://www.w3.org/2000/svg" p-id="3793" xmlns:xlink="http://www.w3.org/1999/xlink" width="733.0078125" height="600"><defs><style type="text/css"></style></defs><path d="M517.458422 510.180526c0-59.678749 48.761905-107.712864 108.440654-107.712864 6.550107 0 13.100213 0.72779 19.65032 1.455579l72.778962-72.778962c-28.383795-15.283582-60.406539-22.561478-92.429282-22.561479-111.351812 0-201.597726 90.245913-201.597726 201.597726 0 33.478323 8.005686 64.773276 22.561479 92.429282l72.778962-72.778962c-1.455579-6.550107-2.183369-13.100213-2.183369-19.65032z m0 0c0-59.678749 48.761905-107.712864 108.440654-107.712864 6.550107 0 13.100213 0.72779 19.65032 1.455579l72.778962-72.778962c-28.383795-15.283582-60.406539-22.561478-92.429282-22.561479-111.351812 0-201.597726 90.245913-201.597726 201.597726 0 33.478323 8.005686 64.773276 22.561479 92.429282l72.778962-72.778962c-1.455579-6.550107-2.183369-13.100213-2.183369-19.65032z m298.393746-64.773277c7.277896 20.378109 10.916844 42.211798 10.916844 64.773277 0 111.351812-90.245913 201.597726-201.597726 201.597726-22.561478 0-44.395167-3.638948-64.773276-10.916845l85.151386-85.151386c43.667377-8.733475 77.1457-42.211798 85.879175-85.879175l84.423597-84.423597z m0 0c7.277896 20.378109 10.916844 42.211798 10.916844 64.773277 0 111.351812-90.245913 201.597726-201.597726 201.597726-22.561478 0-44.395167-3.638948-64.773276-10.916845l85.151386-85.151386c43.667377-8.733475 77.1457-42.211798 85.879175-85.879175l84.423597-84.423597z m223.431414 29.111585c-16.011372-38.57285-36.389481-75.690121-58.22317-103.346126-12.372424-16.011372-26.200426-30.567164-40.756219-43.667378l63.317698-69.140014c18.194741 16.739161 34.933902 34.933902 50.217484 54.584222 33.478323 41.484009 57.49538 91.701493 72.051172 125.907605 13.828003 33.478323 24.017058 65.501066 24.017058 72.051173-0.72779 7.277896-10.189055 39.30064-24.017058 72.778962-14.555792 34.206112-38.57285 84.423596-72.051172 125.907605-43.667377 54.584222-98.251599 98.979389-160.841507 130.274342-77.1457 38.57285-167.391613 58.22317-267.826582 58.22317-81.512438 0-156.474769-13.100213-223.431414-38.57285l74.234542-74.234541c45.122957 13.100213 95.340441 18.92253 149.196872 18.92253 86.606965 0 162.297086-16.739161 225.614784-48.761905 50.217484-24.744847 94.612651-61.134328 129.546553-104.801706 22.561478-27.656006 42.211798-64.773276 58.223169-103.346126 5.094527-12.372424 10.189055-25.472637 13.828003-36.389481-3.638948-10.916844-8.005686-24.017058-13.100213-36.389482z m0 0c-16.011372-38.57285-36.389481-75.690121-58.22317-103.346126-12.372424-16.011372-26.200426-30.567164-40.756219-43.667378l63.317698-69.140014c18.194741 16.739161 34.933902 34.933902 50.217484 54.584222 33.478323 41.484009 57.49538 91.701493 72.051172 125.907605 13.828003 33.478323 24.017058 65.501066 24.017058 72.051173-0.72779 7.277896-10.189055 39.30064-24.017058 72.778962-14.555792 34.206112-38.57285 84.423596-72.051172 125.907605-43.667377 54.584222-98.251599 98.979389-160.841507 130.274342-77.1457 38.57285-167.391613 58.22317-267.826582 58.22317-81.512438 0-156.474769-13.100213-223.431414-38.57285l74.234542-74.234541c45.122957 13.100213 95.340441 18.92253 149.196872 18.92253 86.606965 0 162.297086-16.739161 225.614784-48.761905 50.217484-24.744847 94.612651-61.134328 129.546553-104.801706 22.561478-27.656006 42.211798-64.773276 58.223169-103.346126 5.094527-12.372424 10.189055-25.472637 13.828003-36.389481-3.638948-10.916844-8.005686-24.017058-13.100213-36.389482z m-841.324804 36.389482c3.638948-11.644634 8.733475-24.017058 13.828002-36.389482 16.011372-39.30064 36.389481-76.41791 58.22317-104.073916 34.933902-43.667377 79.329069-79.329069 129.546553-104.801705 63.317697-32.022743 139.735608-48.761905 225.614783-48.761905 66.228856 0 125.907605 9.461265 178.308458 28.383795l72.051173-72.051173c-72.778962-33.478323-157.202559-49.489694-250.359631-49.489694-100.434968 0-190.680881 19.65032-267.826581 58.22317C294.754797 213.970149 240.170576 258.365316 196.503198 312.949538c-33.478323 42.211798-57.49538 91.701493-72.051172 126.635394-13.828003 33.478323-24.017058 65.501066-24.017058 72.051173 0 7.277896 10.189055 39.30064 24.017058 72.778963 14.555792 34.206112 38.57285 84.423596 72.051172 125.907604 21.105899 26.928216 45.122957 50.945274 70.595594 72.051173l59.678749-72.051173c-21.105899-17.466951-40.028429-36.389481-56.767591-58.22317-21.833689-27.656006-42.211798-64.045487-58.22317-103.346126-5.094527-13.100213-9.461265-25.472637-13.828002-37.84506z m13.828002-35.661692c16.011372-39.30064 36.389481-76.41791 58.22317-104.073916 34.933902-43.667377 79.329069-79.329069 129.546553-104.801706 63.317697-32.022743 139.735608-48.761905 225.614783-48.761905 66.228856 0 125.907605 9.461265 178.308458 28.383796l72.051173-72.051173c-72.778962-33.478323-157.202559-49.489694-250.359631-49.489694-100.434968 0-190.680881 19.65032-267.826581 58.223169C294.754797 213.970149 240.170576 258.365316 196.503198 312.949538c-33.478323 42.211798-57.49538 91.701493-72.051172 126.635394-13.828003 33.478323-24.017058 65.501066-24.017058 72.051173 0 7.277896 10.189055 39.30064 24.017058 72.778963 14.555792 34.206112 38.57285 84.423596 72.051172 125.907604 21.105899 26.928216 45.122957 50.945274 70.595594 72.051173l59.678749-72.051173c-21.105899-17.466951-40.028429-36.389481-56.767591-58.22317-21.833689-27.656006-42.211798-64.045487-58.22317-103.346126-5.094527-12.372424-9.461265-24.017058-13.828002-36.389481 3.638948-12.372424 8.733475-25.472637 13.828002-37.117271zM1007.260839 72.778962l79.329069 80.056859L289.66027 949.765458l-79.329069-79.329069L1007.260839 72.778962z" p-id="3794" fill="#d81e06"></path></svg>