<?xml version="1.0" standalone="no"?><!DOCTYPE svg PUBLIC "-//W3C//DTD SVG 1.1//EN" "http://www.w3.org/Graphics/SVG/1.1/DTD/svg11.dtd"><svg t="1573717972545" class="icon" viewBox="0 0 1024 1024" version="1.1" xmlns="http://www.w3.org/2000/svg" p-id="5499" width="500" height="500" xmlns:xlink="http://www.w3.org/1999/xlink"><defs><style type="text/css"></style></defs><path d="M678.266279 758.50423c-56.095599 44.915979-123.5632 68.601424-195.111746 68.601424-173.011402 0-313.799916-141.338029-313.799915-315.103607 0-173.767626 140.78749-315.158866 313.799915-315.158867 165.335582 0 302.874075 129.763412 313.083602 295.41315l0.339737 4.990665h40.999786l-0.341784-5.618975c-2.307555-40.928155-11.461029-80.70816-27.229155-118.2768-17.838274-42.422182-43.398416-80.521918-76.006067-113.237017-32.652677-32.719192-70.582545-58.417481-112.78574-76.290547-43.7402-18.590404-90.196255-28.007891-138.095171-28.007891-47.866171 0-94.333482 9.416464-138.071636 28.007891-42.181705 17.922185-80.132038 43.571355-112.774483 76.290547-32.56365 32.764218-58.133002 70.863954-75.948762 113.286136-18.566868 43.955094-27.92398 90.557482-27.92398 138.601708 0 48.042179 9.356089 94.689592 27.92398 138.644687 17.816784 42.422182 43.385113 80.521918 75.948762 113.190968 32.607652 32.764218 70.592778 58.419528 112.830765 76.336596 43.726897 18.594497 90.194208 28.007891 138.049123 28.00789 47.864124 0 94.321202-9.413394 138.106428-28.00789 41.008996-17.392112 78.062913-42.225707 110.101607-73.747631l9.208732-9.078773h-60.848856l-1.455142 1.156336z m-81.610715-227.096205c11.130502 0 20.23895-9.221012 20.23895-20.609386 0-11.382235-9.0624-20.658506-20.23895-20.658506h-89.330538v-11.865235c0.430812-0.86367 0.772596-1.728364 1.012049-2.6432l86.794786-92.718705c7.810896-8.022721 7.810896-21.047362 0-29.021987-3.843538-3.940752-8.925277-6.100952-14.33652-6.100952-5.423523 0-10.55131 2.161223-14.394849 6.100952l-79.268368 85.568864-79.257111-85.469603-0.046049-0.098238c-3.841491-3.940752-8.969279-6.100952-14.392802-6.100951-5.412266 0-10.44898 2.161223-14.292517 6.100951-7.868201 7.973602-7.868201 20.998243-0.046049 29.021987l86.750783 92.767824c0.283456 0.914836 0.670266 1.779529 1.090844 2.594081v11.865235h-89.319281c-11.130502 0-20.249183 9.227152-20.249183 20.658506 0 11.338233 9.073656 20.609387 20.249183 20.609387h89.319281v24.599257h-89.319281c-11.130502 0-20.249183 9.225105-20.249183 20.607341 0 11.389398 9.073656 20.614503 20.249183 20.614503h89.319281v59.957557c0 11.333116 9.027607 20.60427 20.192901 20.60427 11.17655 0 20.249183-9.221012 20.249183-20.60427v-60.006676h89.273233c11.130502 0 20.23895-9.225105 20.23895-20.60734 0-11.389398-9.108448-20.614503-20.23895-20.614503h-89.330538v-24.550139h89.331562z m297.598931 88.63776c-0.533143-1.24741-1.149173-2.206248-1.682315-2.87856-0.148379-0.191358-0.239454-0.339738-0.330528-0.481978a1.186012 1.186012 0 0 1-0.191358-0.386809c-0.341784-0.62524-0.818645-1.483794-1.626034-2.39863l-75.380827-79.847559a18.6078 18.6078 0 0 0-13.631462-5.91164c-4.981455 0-9.630335 1.926886-13.178138 5.434779-7.480368 7.442506-7.673773 19.597337-0.47686 27.237341l44.591591 47.226604H665.090189c-10.44898 0-18.941398 8.645914-18.941398 19.262716 0 10.616802 8.492418 19.219737 18.941398 19.219737h167.257351l-44.647872 47.221488c-7.140631 7.638981-6.947226 19.794835 0.47686 27.14422a18.686594 18.686594 0 0 0 13.189394 5.42864c5.184069 0 10.016121-2.113127 13.620205-5.9055l75.346036-79.84756c0.853437-0.865717 1.238201-1.730411 1.568728-2.305509 0.046049-0.098237 0.102331-0.190335 0.14838-0.288572 0.148379-0.14224 0.237407-0.339738 0.37453-0.532119 0.535189-0.716314 1.26276-1.680269 1.784646-3.021823a19.376303 19.376303 0 0 0 1.38658-7.206123c0.046049-2.358721-0.442068-4.804423-1.340532-7.163143z" p-id="5500" fill="#e6e6e6"></path></svg>